<svg width="510" height="453" viewBox="0 0 510 453" fill="none" xmlns="http://www.w3.org/2000/svg">
<mask id="mask0" style="mask-type:alpha" maskUnits="userSpaceOnUse" x="0" y="0" width="510" height="453">
<path d="M61.176 66.9631C27.471 103.799 -0.0802659 134.087 0.000175703 134.288C0.0403965 134.489 30.7289 172.971 68.1744 219.849C139.888 309.629 150.024 322.323 214.216 402.702C236.257 430.299 254.638 452.955 255 452.995C255.442 453.075 256.327 452.192 257.413 450.665C258.982 448.456 352.334 331.481 485.867 164.375C499.18 147.704 510.04 133.926 510 133.765C509.919 133.605 482.368 103.437 448.784 66.7622L387.648 3.29912e-06H255.08H122.473L61.176 66.9631Z" fill="#FF005C"/>
</mask>
<g mask="url(#mask0)">
<path d="M131.87 93.2514C160.771 93.2514 181.255 98.6505 193.324 109.449C195.229 107.225 197.135 102.62 199.04 95.6333H209.521V148.989H198.564C194.753 133.744 187.131 122.47 175.697 115.165C164.264 107.543 150.449 103.732 134.252 103.732C104.398 103.732 84.7071 118.976 75.1794 149.465C69.1451 167.568 67.7159 189.006 70.8919 213.778C75.0206 248.078 89.1534 269.674 113.29 278.567C119.96 280.79 127.106 281.901 134.728 281.901C147.749 281.901 158.547 279.837 167.122 275.708C175.697 271.262 180.62 266.975 181.89 262.846V213.778H148.543V203.774H228.577V213.778H212.379V265.704C207.298 272.691 197.294 279.043 182.367 284.76C167.44 290.159 151.878 292.858 135.681 292.858C103.921 292.858 78.6729 283.331 59.9349 264.275C41.197 244.902 31.828 221.4 31.828 193.769C31.828 165.821 41.0382 142.319 59.4585 123.264C71.527 110.56 86.7715 101.826 105.192 97.0625C114.72 94.5218 123.612 93.2514 131.87 93.2514ZM243.449 224.735C243.449 204.726 249.801 188.688 262.504 176.619C275.208 164.233 291.088 158.04 310.143 158.04C329.516 158.04 345.396 164.233 357.782 176.619C370.486 188.688 376.838 204.726 376.838 224.735C376.838 244.743 370.645 261.099 358.259 273.803C345.872 286.506 329.993 292.858 310.62 292.858C291.247 292.858 275.208 286.506 262.504 273.803C249.801 261.099 243.449 244.743 243.449 224.735ZM310.143 281.901C332.057 281.901 342.538 262.846 341.585 224.735C341.585 206.95 339.362 193.134 334.916 183.289C330.469 173.444 322.212 168.521 310.143 168.521C292.993 168.521 282.989 179.795 280.131 202.344C279.178 209.331 278.702 216.795 278.702 224.735C278.702 242.837 280.766 256.335 284.895 265.228C289.976 276.344 298.392 281.901 310.143 281.901ZM419.288 100.874C419.288 99.6032 419.288 97.2213 419.288 93.7278C419.288 89.9167 421.194 86.1056 425.005 82.2944C429.134 78.1657 433.898 76.1014 439.297 76.1014C445.013 76.1014 449.936 78.1657 454.065 82.2944C458.194 86.1056 460.258 90.8694 460.258 96.5861C460.258 98.1741 459.94 99.6032 459.305 100.874L445.49 233.31H433.58L419.288 100.874ZM419.288 271.897C419.288 263.005 423.417 256.812 431.675 253.318C433.898 252.365 437.232 251.889 441.679 251.889C446.125 251.571 450.254 253.318 454.065 257.129C458.194 261.258 460.099 266.181 459.782 271.897C459.782 277.614 457.876 282.537 454.065 286.665C450.254 290.476 445.331 292.382 439.297 292.382C433.58 292.382 428.816 290.476 425.005 286.665C421.194 282.537 419.288 277.614 419.288 271.897Z" fill="white"/>
</g>
</svg>
