<svg width="510" height="453" fill="none" xmlns="http://www.w3.org/2000/svg"><mask id="mask0" style="mask-type:alpha" maskUnits="userSpaceOnUse" x="0" y="0" width="510" height="453"><path d="M61.176 66.963C27.471 103.8-.08 134.087 0 134.288c.04.201 30.729 38.683 68.174 85.561 71.714 89.78 81.85 102.474 146.042 182.853 22.041 27.597 40.422 50.253 40.784 50.293.442.08 1.327-.803 2.413-2.33 1.569-2.209 94.921-119.184 228.454-286.29 13.313-16.671 24.173-30.449 24.133-30.61-.081-.16-27.632-30.328-61.216-67.003L387.648 0H122.473L61.176 66.963z" fill="#FF005C"/></mask><g mask="url(#mask0)"><path d="M131.87 93.251c28.901 0 49.385 5.4 61.454 16.198 1.905-2.224 3.811-6.829 5.716-13.816h10.481v53.356h-10.957c-3.811-15.245-11.433-26.519-22.867-33.824-11.433-7.622-25.248-11.433-41.445-11.433-29.854 0-49.545 15.244-59.073 45.733-6.034 18.103-7.463 39.541-4.287 64.313 4.129 34.3 18.261 55.896 42.398 64.789 6.67 2.223 13.816 3.334 21.438 3.334 13.021 0 23.819-2.064 32.394-6.193 8.575-4.446 13.498-8.733 14.768-12.862v-49.068h-33.347v-10.004h80.034v10.004h-16.198v51.926c-5.081 6.987-15.085 13.339-30.012 19.056-14.927 5.399-30.489 8.098-46.686 8.098-31.76 0-57.008-9.527-75.746-28.583-18.738-19.373-28.107-42.875-28.107-70.506 0-27.948 9.21-51.45 27.63-70.505 12.069-12.704 27.314-21.438 45.734-26.201 9.528-2.541 18.42-3.812 26.678-3.812zm111.579 131.484c0-20.009 6.352-36.047 19.055-48.116 12.704-12.386 28.584-18.579 47.639-18.579 19.373 0 35.253 6.193 47.639 18.579 12.704 12.069 19.056 28.107 19.056 48.116 0 20.008-6.193 36.364-18.579 49.068-12.387 12.703-28.266 19.055-47.639 19.055-19.373 0-35.412-6.352-48.116-19.055-12.703-12.704-19.055-29.06-19.055-49.068zm66.694 57.166c21.914 0 32.395-19.055 31.442-57.166 0-17.785-2.223-31.601-6.669-41.446-4.447-9.845-12.704-14.768-24.773-14.768-17.15 0-27.154 11.274-30.012 33.823-.953 6.987-1.429 14.451-1.429 22.391 0 18.102 2.064 31.6 6.193 40.493 5.081 11.116 13.497 16.673 25.248 16.673zm109.145-181.027v-7.146c0-3.811 1.906-7.622 5.717-11.434 4.129-4.128 8.893-6.193 14.292-6.193 5.716 0 10.639 2.065 14.768 6.193 4.129 3.812 6.193 8.575 6.193 14.292 0 1.588-.318 3.017-.953 4.288L445.49 233.31h-11.91l-14.292-132.436zm0 171.023c0-8.892 4.129-15.085 12.387-18.579 2.223-.953 5.557-1.429 10.004-1.429 4.446-.318 8.575 1.429 12.386 5.24 4.129 4.129 6.034 9.052 5.717 14.768 0 5.717-1.906 10.64-5.717 14.768-3.811 3.811-8.734 5.717-14.768 5.717-5.717 0-10.481-1.906-14.292-5.717-3.811-4.128-5.717-9.051-5.717-14.768z" fill="#fff"/></g></svg>